PathFileType	4	(X/Y/Z)	/Users/visionmauri/4_3_2_f_1_Sports2D/4_3_2_f_1_Sports2D_m_person00.trc
DataRate	CameraRate	NumFrames	NumMarkers	Units	OrigDataRate	OrigDataStartFrame	OrigNumFrames
30.0	30.0	8	22	m	30.0	90	360
Frame#	Time	Hip			RHip			RKnee			RAnkle			RBigToe			RSmallToe			RHeel			LHip			LKnee			LAnkle			LBigToe			LSmallToe			LHeel			Neck			Head			Nose			RShoulder			RElbow			RWrist			LShoulder			LElbow			LWrist			
		X1	Y1	Z1	X2	Y2	Z2	X3	Y3	Z3	X4	Y4	Z4	X5	Y5	Z5	X6	Y6	Z6	X7	Y7	Z7	X8	Y8	Z8	X9	Y9	Z9	X10	Y10	Z10	X11	Y11	Z11	X12	Y12	Z12	X13	Y13	Z13	X14	Y14	Z14	X15	Y15	Z15	X16	Y16	Z16	X17	Y17	Z17	X18	Y18	Z18	X19	Y19	Z19	X20	Y20	Z20	X21	Y21	Z21	X22	Y22	Z22
90	3.008356545961003	0.9274552618836285	0.9850221727958132	0.0301	1.008361109766717	0.9689216552041081	0.0301	1.0694519369384026	0.70630331367996	0.129	1.1046743470203984	0.3467844154661872	0.023	1.1206038783269014	0.2913573333584391	0.2179	1.1486316070552334	0.27738104470348696	0.1804	1.0778979948360152	0.28668877220570865	-0.0119	0.8612859863496793	0.9827339234739976	0.0301	0.8787776273203142	0.6240965097203545	0.129	0.8593835662739091	0.2912163845075505	0.023	0.8919210377438775	0.22586880371397774	0.2179	0.8432070522314834	0.23226002904633125	0.1804	0.8544377560050869	0.2319683297862627	-0.0119	1.0541868577305586	1.4376147149985588	0.0008	1.1960758674649936	1.5854330492748459	0.0655	1.1807639579124949	1.437550638006976	0.1076	1.139163455885799	1.3817175856175141	-0.01275	1.2280007449536323	1.1403847431719998	0.0702	1.3468000120780295	0.9549518556656208	0.1076	0.9207323632434816	1.4241195631663266	-0.01275	0.9173369843906835	1.1812401449029115	0.0702	1.062994522244604	1.0291553203586943	0.1076
91	3.041782729805014	0.9244985168059182	0.9855805361085992	0.0301	1.003442224129475	0.9671709914694814	0.0301	1.0675465610581445	0.6957159655512899	0.129	1.1029635110637066	0.319069458117071	0.023	1.1437613215224305	0.2942795262699756	0.2179	1.169833962190184	0.27479101966501224	0.1804	1.0758749707436843	0.2550885622281311	-0.0119	0.8610533009674168	0.9835763332218572	0.0301	0.8789622054077709	0.6252753692517835	0.129	0.8595913931893878	0.2908791484250277	0.023	0.895291013891108	0.22852161435896462	0.2179	0.8481316699006348	0.23059803407116125	0.1804	0.8532047323530204	0.23513989903309418	-0.0119	1.0558480352592368	1.436668129701794	0.0008	1.202550141346547	1.5827318180842938	0.0655	1.1832725355655318	1.4339530860896663	0.1076	1.1395485938302186	1.3809654460957883	-0.01275	1.2287445691889871	1.1395104124040194	0.0702	1.3482407494218012	0.9540914134768959	0.1076	0.9283400740775971	1.4233290651069865	-0.01275	0.9531600475801437	1.1784394116846864	0.0702	1.0936575213099964	1.024182600881224	0.1076
92	3.0752089136490253	0.9251806592689901	0.9861455298122919	0.0301	1.0021857435657762	0.9667662563465058	0.0301	1.0660570784539933	0.6884774902346334	0.129	1.102481226675993	0.32897197513172327	0.023	1.1526193344087423	0.2961809481554902	0.2179	1.1701163542280628	0.27660344289452066	0.1804	1.0754561140960408	0.2656178305869731	-0.0119	0.8609881625860278	0.9862261136219159	0.0301	0.8795736230816841	0.6277009641451428	0.129	0.8594557057383171	0.29164551864817806	0.023	0.8972809643229143	0.23066375663835012	0.2179	0.8504605764452354	0.2297635739313553	0.1804	0.8519316574762622	0.23694884123525534	-0.0119	1.0586533363654511	1.4358589069765055	0.0008	1.2087984574529382	1.5817931974363804	0.0655	1.1866835186807874	1.4323061921358056	0.1076	1.1414331593593956	1.380021352822626	-0.01275	1.229827106533984	1.1375862598213302	0.0702	1.3483383293320226	0.9531625876988907	0.1076	0.9342975413837294	1.4227634438285026	-0.01275	0.9735241395208994	1.1760173035330013	0.0702	1.1080617335780931	1.0252106665027025	0.1076
93	3.1086350974930363	0.9284557599878922	0.9863473098785347	0.0301	1.0029133796145064	0.9666224566084963	0.0301	1.0648149131112852	0.6860036430992696	0.129	1.0996972810017032	0.3357321423905709	0.023	1.1451062151482334	0.2962808539642983	0.2179	1.15464344385034	0.27860219483520143	0.1804	1.0727464573892154	0.27602101127579254	-0.0119	0.8620448358866064	0.9868135922023197	0.0301	0.8818538112029229	0.6311123392271448	0.129	0.8590448353531682	0.29320849961097534	0.023	0.8982946213325071	0.23032798493526027	0.2179	0.8516142260676509	0.23018203193262207	0.1804	0.8509385312817117	0.236715998017482	-0.0119	1.0644345105196276	1.4343657107334433	0.0008	1.2135610961165249	1.5821970554576317	0.0655	1.191837614151646	1.4319299041265172	0.1076	1.1442206036328986	1.3791579915570495	-0.01275	1.2305266639904526	1.1354887118796382	0.0702	1.3480930546132575	0.9523954709075184	0.1076	0.9399490296368352	1.4231708523896136	-0.01275	0.9827377219989532	1.1710044720624695	0.0702	1.1223756172745034	1.0293015651359982	0.1076
94	3.1420612813370474	0.9310339373998413	0.985417617980811	0.0301	1.004224666171071	0.9671722637934068	0.0301	1.0652193904166387	0.6839210551732849	0.129	1.0977028359159924	0.3279558183153169	0.023	1.1437005054833802	0.2888161387392166	0.2179	1.1475948307849066	0.2700179736148591	0.1804	1.0705073154475915	0.2697514462189503	-0.0119	0.8642119775895968	0.9857558811395536	0.0301	0.8856485978310198	0.6333159003655332	0.129	0.8584476768159275	0.29427351609954944	0.023	0.8989184176000938	0.2287518095809988	0.2179	0.8526906537447456	0.23076674492519092	0.1804	0.8506589877246588	0.23433461220051116	-0.0119	1.0704161975207949	1.43057754562375	0.0008	1.2180375595576134	1.5842525111484387	0.0655	1.1979662393499781	1.431593375937639	0.1076	1.1467794778759806	1.3783787794932156	-0.01275	1.2303448720416474	1.1341639768169551	0.0702	1.3482579700958792	0.9529445790268752	0.1076	0.9461144996438586	1.42271821470359	-0.01275	0.9901414405686364	1.1651782145085718	0.0702	1.1384196986140038	1.034418595129329	0.1076
95	3.1754874651810585	0.9318102699667826	0.9831524432594169	0.0301	1.005318697938168	0.9681915067523409	0.0301	1.0666799113085321	0.6794427341283632	0.129	1.0991883621076493	0.31133642550179497	0.023	1.1636040456965453	0.2738226495913955	0.2179	1.1556379835614	0.2481142182634947	0.1804	1.072336364625779	0.2486777287569026	-0.0119	0.8669573663793175	0.9851729022338545	0.0301	0.8895572862665301	0.6329761890221395	0.129	0.8579963314775291	0.2939375264049692	0.023	0.8990487046431629	0.2279323799428677	0.2179	0.8535293598980551	0.2309108353467374	0.1804	0.8508850606562522	0.23080497733388938	-0.0119	1.0745132931719386	1.4245218512532052	0.0008	1.2227986551072667	1.58741478780322	0.0655	1.203647856066498	1.4312394199640717	0.1076	1.1488435968153794	1.3778734819375016	-0.01275	1.2299730127270292	1.1331820305396716	0.0702	1.3484031071482618	0.954540631676173	0.1076	0.9531320577043855	1.42021585848948	-0.01275	1.0013179070620828	1.160287896552123	0.0702	1.1520087428792993	1.0365549962902003	0.1076
96	3.20891364902507	0.9340828445328123	0.9807661865877484	0.0301	1.0062454645751489	0.9677569711054602	0.0301	1.0670763648774682	0.6740205929035478	0.129	1.099522898879837	0.2967994813432708	0.023	1.1895548372263636	0.26263197345182226	0.2179	1.1590050758701922	0.22778559752569238	0.1804	1.0745151664825539	0.2294586461781033	-0.0119	0.8709959202302731	0.985424734418543	0.0301	0.8929448877688261	0.6321695105159476	0.129	0.8578651529396231	0.2928583635756963	0.023	0.8996285974959674	0.228053679733913	0.2179	0.8539211688524806	0.23092941725491295	0.1804	0.8511225021208221	0.2287624151246878	-0.0119	1.0794318358745005	1.4194098281274854	0.0008	1.2271106774791365	1.5893394170722244	0.0655	1.2091937892630493	1.4319502005575395	0.1076	1.151501363483988	1.3778182032860358	-0.01275	1.2300986541423966	1.1321189189114595	0.0702	1.3476447203827184	0.9544368159829075	0.1076	0.9616180218074121	1.4174502595565834	-0.01275	1.0175094926322823	1.1536190200606027	0.0702	1.1642725426613816	1.0328933364274764	0.1076
97	3.242339832869081	0.940253270091003	0.9788830189224875	0.0301	1.00839350618685	0.964640470187299	0.0301	1.0663929524169442	0.6680332003049836	0.129	1.0948263190758272	0.29000507526491276	0.023	1.2006196911603755	0.2591048457051577	0.2179	1.1577017272284347	0.2207443367876357	0.1804	1.0717532868715496	0.22419688938973803	-0.0119	0.8771159966255319	0.9852190442116687	0.0301	0.8965932959970523	0.6320747036074823	0.129	0.8582284700826227	0.2916870416629267	0.023	0.9022483236861168	0.228386134173225	0.2179	0.8542403779830998	0.23125370766976788	0.1804	0.8514342805834154	0.22937799802526085	-0.0119	1.0876650232570633	1.4177268775590333	0.0008	1.2306610045409174	1.5895939276109685	0.0655	1.215674943301812	1.4340852018550283	0.1076	1.1557053765267575	1.377660678539878	-0.01275	1.2303538163036503	1.1314843787481115	0.0702	1.3464403393313429	0.9514335856586438	0.1076	0.971680391879177	1.4156052497837799	-0.01275	1.035387060625852	1.144955202549962	0.0702	1.175849297546643	1.0259938440641723	0.1076
